<?xml version="1.0" encoding="utf-8"?>
<!-- Generator: Adobe Illustrator 19.0.0, SVG Export Plug-In . SVG Version: 6.00 Build 0)  -->
<svg version="1.1" id="Layer_1" xmlns="http://www.w3.org/2000/svg" xmlns:xlink="http://www.w3.org/1999/xlink" x="0px" y="0px"
	 viewBox="230 266.1 1060.5 261.9" style="enable-background:new 230 266.1 1060.5 261.9;" xml:space="preserve">
<style type="text/css">
	.st0{fill:#FFFFFF;}
	.st1{fill:#E50914;}
</style>
<g>
	<g>
		<path class="st0" d="M742.2,318.1l-73.9,155.3h-1.7l-73.8-155.3h32.7l41.9,90.1l41.9-90.1H742.2z"/>
		<path class="st0" d="M964.5,476.2c-10.1,0-19.2-1.6-27.4-4.7c-8.2-3.1-15.2-7.5-21-13.2s-10.3-12.5-13.5-20.6s-4.8-17.1-4.8-27
			v-92.6h29.7v92.5c0,7.8,1.3,14.2,3.8,19.3c2.5,5.1,5.7,9.1,9.5,12.1s7.8,5,12.1,6.2c4.3,1.1,8.2,1.7,11.6,1.7
			c3.4,0,7.3-0.6,11.6-1.7c4.3-1.1,8.4-3.2,12.1-6.2c3.8-3,6.9-7,9.5-12.1c2.5-5.1,3.8-11.5,3.8-19.3v-92.5h29.7v92.6
			c0,9.9-1.6,18.9-4.7,27s-7.6,14.9-13.4,20.6c-5.8,5.7-12.8,10.1-21,13.2C983.9,474.7,974.7,476.2,964.5,476.2z"/>
		<path class="st0" d="M1181.3,447.1v26.3h-112V317.9h29.7v129.2H1181.3z"/>
		<path class="st0" d="M1290.4,344.3H1246v129.2h-29.7V344.3h-44.6v-26.4h118.8L1290.4,344.3L1290.4,344.3z"/>
		<polygon class="st0" points="803.1,318.1 800.1,318.1 720.7,473.5 753,473.5 801.6,376.1 850.3,473.5 882.6,473.5 		"/>
	</g>
	<g>
		<path class="st1" d="M532.5,266.1H230L381.2,528L532.5,266.1z M484.9,293.5L381.2,473.1L277.5,293.5H484.9z"/>
		<polygon class="st1" points="325.3,321 357,321 381.2,362.9 405.4,321 437.2,321 381.2,418 		"/>
	</g>
</g>
</svg>
